# xmcd
#
# Track frame offsets:
# 150
# 16186
# 28219
# 43634
# 57668
# 72609
# 90214
# 110443
# 120264
# 132009
# 136452
# 148669
# 161813
# 186094
# 200100
# 212884
# 230242
# 243747
# 256968
# 266039
# 277157
# 288749
#
# Disc length: 4044 seconds
#
#
# Revision: 0
# Processed by: cddbd v1.5.2PL0 Copyright (c) Steve Scherf et al.
# Submitted via: FreeRIP 2.951 
#
DISCID=650fca16
DTITLE=bruno e marrone - bruno e marrone
DYEAR=2004
DGENRE=Country
TTITLE0=bruno
TTITLE1=bruno
TTITLE2=bruno
TTITLE3=v
TTITLE4=bruno
TTITLE5=bruno
TTITLE6=bruno
TTITLE7=bruno
TTITLE8=bruno
TTITLE9=bruno
TTITLE10=bruno
TTITLE11=bruno
TTITLE12=bruno
TTITLE13=bruno
TTITLE14=bruno
TTITLE15=bruno
TTITLE16=bruno
TTITLE17=bruno
TTITLE18=bruno
TTITLE19=bruno
TTITLE20=bruno
TTITLE21=bruno
EXTD=
EXTT0=
EXTT1=
EXTT2=
EXTT3=
EXTT4=
EXTT5=
EXTT6=
EXTT7=
EXTT8=
EXTT9=
EXTT10=
EXTT11=
EXTT12=
EXTT13=
EXTT14=
EXTT15=
EXTT16=
EXTT17=
EXTT18=
EXTT19=
EXTT20=
EXTT21=
PLAYORDER=
